<svg width="167" height="32" viewBox="0 0 167 32" fill="none" xmlns="http://www.w3.org/2000/svg">
  <path d="M0 22.9744H15.2V32H0.999999C0.447714 32 0 31.5523 0 31V22.9744Z" fill="#B2DDFF" />
  <path d="M16.7998 22.9744H31.9998V31C31.9998 31.5523 31.5521 32 30.9998 32H16.7998V22.9744Z" fill="#84CAFF" />
  <path d="M0 1C0 0.447717 0.447715 0 1 0H21.6V21.3333H0V1Z" fill="#1570EF" />
  <path d="M23.2002 0H31.0002C31.5525 0 32.0002 0.447715 32.0002 1V21.3333H23.2002V0Z" fill="#B2DDFF" />
  <path
    d="M1.6001 16.3218C5.50764 14.6775 12.3675 12.6752 8.54683 17.8211C4.72613 22.9669 15.1237 16.2896 20.8001 12.3077"
    stroke="#F5FAFF" stroke-width="1.5" />
  <path
    d="M53.3 15.84C54.0867 15.9867 54.7333 16.38 55.24 17.02C55.7467 17.66 56 18.3933 56 19.22C56 19.9667 55.8133 20.6267 55.44 21.2C55.08 21.76 54.5533 22.2 53.86 22.52C53.1667 22.84 52.3467 23 51.4 23H45.38V9.04H51.14C52.0867 9.04 52.9 9.19333 53.58 9.5C54.2733 9.80667 54.7933 10.2333 55.14 10.78C55.5 11.3267 55.68 11.9467 55.68 12.64C55.68 13.4533 55.46 14.1333 55.02 14.68C54.5933 15.2267 54.02 15.6133 53.3 15.84ZM48.18 14.8H50.74C51.4067 14.8 51.92 14.6533 52.28 14.36C52.64 14.0533 52.82 13.62 52.82 13.06C52.82 12.5 52.64 12.0667 52.28 11.76C51.92 11.4533 51.4067 11.3 50.74 11.3H48.18V14.8ZM51 20.72C51.68 20.72 52.2067 20.56 52.58 20.24C52.9667 19.92 53.16 19.4667 53.16 18.88C53.16 18.28 52.96 17.8133 52.56 17.48C52.16 17.1333 51.62 16.96 50.94 16.96H48.18V20.72H51ZM68.6916 11.92V23H65.8716V21.6C65.5116 22.08 65.0382 22.46 64.4516 22.74C63.8782 23.0067 63.2516 23.14 62.5716 23.14C61.7049 23.14 60.9382 22.96 60.2716 22.6C59.6049 22.2267 59.0782 21.6867 58.6916 20.98C58.3182 20.26 58.1316 19.4067 58.1316 18.42V11.92H60.9316V18.02C60.9316 18.9 61.1516 19.58 61.5916 20.06C62.0316 20.5267 62.6316 20.76 63.3916 20.76C64.1649 20.76 64.7716 20.5267 65.2116 20.06C65.6516 19.58 65.8716 18.9 65.8716 18.02V11.92H68.6916ZM72.8742 10.6C72.3809 10.6 71.9676 10.4467 71.6342 10.14C71.3142 9.82 71.1542 9.42667 71.1542 8.96C71.1542 8.49333 71.3142 8.10667 71.6342 7.8C71.9676 7.48 72.3809 7.32 72.8742 7.32C73.3676 7.32 73.7742 7.48 74.0942 7.8C74.4276 8.10667 74.5942 8.49333 74.5942 8.96C74.5942 9.42667 74.4276 9.82 74.0942 10.14C73.7742 10.4467 73.3676 10.6 72.8742 10.6ZM74.2542 11.92V23H71.4542V11.92H74.2542ZM79.8206 8.2V23H77.0206V8.2H79.8206ZM81.867 17.42C81.867 16.3 82.087 15.3067 82.527 14.44C82.9804 13.5733 83.5937 12.9067 84.367 12.44C85.1404 11.9733 86.0004 11.74 86.947 11.74C87.667 11.74 88.3537 11.9 89.007 12.22C89.6604 12.5267 90.1804 12.94 90.567 13.46V8.2H93.407V23H90.567V21.36C90.2204 21.9067 89.7337 22.3467 89.107 22.68C88.4804 23.0133 87.7537 23.18 86.927 23.18C85.9937 23.18 85.1404 22.94 84.367 22.46C83.5937 21.98 82.9804 21.3067 82.527 20.44C82.087 19.56 81.867 18.5533 81.867 17.42ZM90.587 17.46C90.587 16.78 90.4537 16.2 90.187 15.72C89.9204 15.2267 89.5604 14.8533 89.107 14.6C88.6537 14.3333 88.167 14.2 87.647 14.2C87.127 14.2 86.647 14.3267 86.207 14.58C85.767 14.8333 85.407 15.2067 85.127 15.7C84.8604 16.18 84.727 16.7533 84.727 17.42C84.727 18.0867 84.8604 18.6733 85.127 19.18C85.407 19.6733 85.767 20.0533 86.207 20.32C86.6604 20.5867 87.1404 20.72 87.647 20.72C88.167 20.72 88.6537 20.5933 89.107 20.34C89.5604 20.0733 89.9204 19.7 90.187 19.22C90.4537 18.7267 90.587 18.14 90.587 17.46ZM103.667 9.04V17.68C103.667 18.6267 103.914 19.3533 104.407 19.86C104.901 20.3533 105.594 20.6 106.487 20.6C107.394 20.6 108.094 20.3533 108.587 19.86C109.081 19.3533 109.327 18.6267 109.327 17.68V9.04H112.147V17.66C112.147 18.8467 111.887 19.8533 111.367 20.68C110.861 21.4933 110.174 22.1067 109.307 22.52C108.454 22.9333 107.501 23.14 106.447 23.14C105.407 23.14 104.461 22.9333 103.607 22.52C102.767 22.1067 102.101 21.4933 101.607 20.68C101.114 19.8533 100.867 18.8467 100.867 17.66V9.04H103.667ZM117.653 9.04V23H114.853V9.04H117.653ZM133.805 9.04V11.3H127.985V14.88H132.445V17.1H127.985V23H125.185V9.04H133.805ZM135.07 17.42C135.07 16.3 135.29 15.3067 135.73 14.44C136.183 13.5733 136.79 12.9067 137.55 12.44C138.323 11.9733 139.183 11.74 140.13 11.74C140.957 11.74 141.677 11.9067 142.29 12.24C142.917 12.5733 143.417 12.9933 143.79 13.5V11.92H146.61V23H143.79V21.38C143.43 21.9 142.93 22.3333 142.29 22.68C141.663 23.0133 140.937 23.18 140.11 23.18C139.177 23.18 138.323 22.94 137.55 22.46C136.79 21.98 136.183 21.3067 135.73 20.44C135.29 19.56 135.07 18.5533 135.07 17.42ZM143.79 17.46C143.79 16.78 143.657 16.2 143.39 15.72C143.123 15.2267 142.763 14.8533 142.31 14.6C141.857 14.3333 141.37 14.2 140.85 14.2C140.33 14.2 139.85 14.3267 139.41 14.58C138.97 14.8333 138.61 15.2067 138.33 15.7C138.063 16.18 137.93 16.7533 137.93 17.42C137.93 18.0867 138.063 18.6733 138.33 19.18C138.61 19.6733 138.97 20.0533 139.41 20.32C139.863 20.5867 140.343 20.72 140.85 20.72C141.37 20.72 141.857 20.5933 142.31 20.34C142.763 20.0733 143.123 19.7 143.39 19.22C143.657 18.7267 143.79 18.14 143.79 17.46ZM153.585 23.18C152.678 23.18 151.865 23.02 151.145 22.7C150.425 22.3667 149.852 21.92 149.425 21.36C149.012 20.8 148.785 20.18 148.745 19.5H151.565C151.618 19.9267 151.825 20.28 152.185 20.56C152.558 20.84 153.018 20.98 153.565 20.98C154.098 20.98 154.512 20.8733 154.805 20.66C155.112 20.4467 155.265 20.1733 155.265 19.84C155.265 19.48 155.078 19.2133 154.705 19.04C154.345 18.8533 153.765 18.6533 152.965 18.44C152.138 18.24 151.458 18.0333 150.925 17.82C150.405 17.6067 149.952 17.28 149.565 16.84C149.192 16.4 149.005 15.8067 149.005 15.06C149.005 14.4467 149.178 13.8867 149.525 13.38C149.885 12.8733 150.392 12.4733 151.045 12.18C151.712 11.8867 152.492 11.74 153.385 11.74C154.705 11.74 155.758 12.0733 156.545 12.74C157.332 13.3933 157.765 14.28 157.845 15.4H155.165C155.125 14.96 154.938 14.6133 154.605 14.36C154.285 14.0933 153.852 13.96 153.305 13.96C152.798 13.96 152.405 14.0533 152.125 14.24C151.858 14.4267 151.725 14.6867 151.725 15.02C151.725 15.3933 151.912 15.68 152.285 15.88C152.658 16.0667 153.238 16.26 154.025 16.46C154.825 16.66 155.485 16.8667 156.005 17.08C156.525 17.2933 156.972 17.6267 157.345 18.08C157.732 18.52 157.932 19.1067 157.945 19.84C157.945 20.48 157.765 21.0533 157.405 21.56C157.058 22.0667 156.552 22.4667 155.885 22.76C155.232 23.04 154.465 23.18 153.585 23.18ZM163.503 14.22V19.58C163.503 19.9533 163.59 20.2267 163.763 20.4C163.95 20.56 164.257 20.64 164.683 20.64H165.983V23H164.223C161.863 23 160.683 21.8533 160.683 19.56V14.22H159.363V11.92H160.683V9.18H163.503V11.92H165.983V14.22H163.503Z"
    fill="black" />
</svg>