<svg width="32" height="32" viewBox="0 0 32 32" fill="none" xmlns="http://www.w3.org/2000/svg">
  <path d="M0 22.9744H15.2V32H0.999999C0.447714 32 0 31.5523 0 31V22.9744Z" fill="#B2DDFF" />
  <path d="M16.7998 22.9744H31.9998V31C31.9998 31.5523 31.5521 32 30.9998 32H16.7998V22.9744Z" fill="#84CAFF" />
  <path d="M0 1C0 0.447717 0.447715 0 1 0H21.6V21.3333H0V1Z" fill="#1570EF" />
  <path d="M23.2002 0H31.0002C31.5525 0 32.0002 0.447715 32.0002 1V21.3333H23.2002V0Z" fill="#B2DDFF" />
  <path
    d="M1.6001 16.3218C5.50764 14.6775 12.3675 12.6752 8.54683 17.8211C4.72613 22.9669 15.1237 16.2896 20.8001 12.3077"
    stroke="#F5FAFF" stroke-width="1.5" />
</svg>